<?xml version="1.0" encoding="UTF-8" standalone="no"?><!DOCTYPE svg PUBLIC "-//W3C//DTD SVG 1.1//EN" "http://www.w3.org/Graphics/SVG/1.1/DTD/svg11.dtd"><svg width="100%" height="100%" viewBox="0 0 812 210" version="1.1" xmlns="http://www.w3.org/2000/svg" xmlns:xlink="http://www.w3.org/1999/xlink" xml:space="preserve" xmlns:serif="http://www.serif.com/" style="fill-rule:evenodd;clip-rule:evenodd;stroke-linejoin:round;stroke-miterlimit:2;"><path d="M293.382,154.232c-25.73,0 -49.478,-17.316 -49.478,-54.423c0,-37.112 23.996,-54.428 49.725,-54.428c25.73,0 49.973,17.316 49.973,54.428c0,37.107 -24.739,54.423 -50.22,54.423Zm0.495,-123.941c-37.851,0 -67.539,26.469 -67.539,69.518c0,42.797 28.945,69.514 67.044,69.514c38.098,0 68.034,-26.717 68.034,-69.514c0,-43.049 -29.44,-69.518 -67.539,-69.518Z" style="fill:#efff00;fill-rule:nonzero;"/><path d="M157.682,90.405l0,78.918l17.071,0l0,-76.94c0,-28 14.294,-42.218 36.388,-44.068c0.397,-0.034 10.471,-0.062 10.873,-0.087l0,-17.201c-0.454,0.001 -10.581,0.007 -11.033,0.017c-29.906,0.655 -53.299,20.481 -53.299,59.361Z" style="fill:#efff00;fill-rule:nonzero;"/><path d="M69.637,30.049c-38.419,0 -69.568,31.112 -69.634,69.516l-0.003,0l0,109.903l17.316,0l0,-109.782c0,-30.357 23.425,-54.965 52.321,-54.965c28.897,0 53.322,24.608 53.322,54.965c0,30.356 -24.425,54.964 -53.322,54.964c-15.977,0 -30.272,-7.532 -39.869,-19.39l0,21.505c11.296,7.905 25.036,12.558 39.869,12.558c38.46,0 69.638,-31.178 69.638,-69.637c0,-38.46 -31.178,-69.637 -69.638,-69.637Z" style="fill:#efff00;fill-rule:nonzero;"/><path d="M391.508,0c-6.928,0 -12.618,5.195 -12.618,12.617c0,7.423 5.69,12.865 12.618,12.865c6.924,0 12.369,-5.442 12.369,-12.865c0,-7.422 -5.445,-12.617 -12.369,-12.617Z" style="fill:#efff00;fill-rule:nonzero;"/><path d="M382.599,175.941c0,13.112 -5.194,17.814 -18.059,17.814l-9.401,0l0,14.843l12.122,0c21.77,0 32.657,-10.144 32.657,-31.914l0,-142.792l-17.319,0l0,142.049Z" style="fill:#efff00;fill-rule:nonzero;"/><path d="M735.151,0l-17.566,0l0,132.355c0,26.964 12.617,36.613 36.12,36.613l18.555,0l0,-14.843l-15.834,0c-15.585,0 -21.275,-5.194 -21.275,-21.77l0,-83.867l37.109,0l0,-14.596l-37.109,0l0,-33.892Z" style="fill:#efff00;fill-rule:nonzero;"/><path d="M798.789,0c-6.928,0 -12.617,5.195 -12.617,12.617c0,7.423 5.689,12.865 12.617,12.865c6.927,0 12.617,-5.442 12.617,-12.865c0,-7.422 -5.69,-12.617 -12.617,-12.617Z" style="fill:#efff00;fill-rule:nonzero;"/><rect x="790.131" y="33.892" width="17.316" height="135.076" style="fill:#efff00;fill-rule:nonzero;"/><path d="M681.751,113.116c-5.309,27.704 -26.847,40.762 -48.961,40.762c-25.73,0 -49.478,-17.316 -49.478,-54.424c0,-37.111 23.996,-54.427 49.725,-54.427c22.308,0 43.481,13.032 48.721,40.682l17.978,0c-5.599,-34.861 -32.597,-55.773 -66.451,-55.773c-37.851,0 -67.54,26.47 -67.54,69.518c0,42.797 28.946,69.514 67.045,69.514c33.859,0 61.25,-21.114 66.931,-55.852l-17.97,0Z" style="fill:#efff00;fill-rule:nonzero;"/><path d="M447.517,92.037c-0.26,2.34 -0.391,4.81 -0.391,7.42c0,2.34 0.111,4.56 0.31,6.68l99.981,0c0.49,-4.7 0.49,-8.17 0.49,-13.61c0,-34.39 -24.24,-62.59 -63.82,-62.59c-38.841,0 -66.31,26.47 -66.31,69.52c0,42.8 27.96,69.51 66.31,69.51c33.89,0 55.66,-19.29 61.85,-44.77l-18.31,0c-4.95,18.06 -20.54,30.18 -43.54,30.18c-24.87,0 -46.62,-16.1 -48.67,-46.87c-0.26,-2.57 -0.39,-5.26 -0.39,-8.05c0,-2.57 0.12,-5.04 0.34,-7.42l-0.02,0c1.98,-31.42 23.5,-47.26 48,-47.26c24.98,0 47.74,15.84 47,47.26l-82.83,0Z" style="fill:#efff00;fill-rule:nonzero;"/></svg>